<?xml version="1.0" standalone="no"?>
<!DOCTYPE svg PUBLIC "-//W3C//DTD SVG 20010904//EN"
 "http://www.w3.org/TR/2001/REC-SVG-20010904/DTD/svg10.dtd">
<svg version="1.0" xmlns="http://www.w3.org/2000/svg"
 width="577.000000pt" height="577.000000pt" viewBox="0 0 577.000000 577.000000"
 preserveAspectRatio="xMidYMid meet">
<metadata>
Created by potrace 1.14, written by Peter Selinger 2001-2017
</metadata>
<g transform="translate(0.000000,577.000000) scale(0.100000,-0.100000)"
fill="#000000" stroke="none">
<path d="M0 5220 l0 -550 50 0 c38 0 50 -4 50 -15 0 -10 -11 -15 -32 -16 l-33
-2 35 -7 c35 -7 35 -7 -18 -15 l-52 -8 2 -361 3 -361 115 -10 c63 -5 110 -13
104 -17 -5 -4 -50 -12 -100 -19 -49 -6 -98 -15 -109 -20 l-20 -8 20 0 c11 0
56 6 100 14 104 19 145 19 145 1 0 -15 -22 -19 -182 -32 l-78 -6 0 -109 0
-109 66 0 c84 0 83 -22 -1 -32 -55 -7 -74 -13 -64 -22 2 -2 31 0 64 4 33 4 64
4 68 0 5 -4 7 -20 5 -36 -3 -25 -8 -29 -48 -37 -77 -13 -90 -17 -90 -26 0 -4
12 -7 28 -5 l27 4 -28 -11 -27 -11 0 -364 c0 -236 4 -364 10 -364 6 0 10 -7
10 -15 0 -8 -4 -15 -10 -15 -5 0 -10 -18 -10 -39 0 -28 5 -41 18 -46 16 -6 16
-7 -1 -19 -15 -11 -17 -31 -17 -140 l0 -126 88 -1 c48 -1 98 -4 112 -9 l25 -7
-27 -8 c-15 -4 -31 -4 -36 -1 -6 3 -12 -1 -16 -9 -3 -8 -14 -15 -25 -15 -11 0
-42 -5 -70 -12 -44 -10 -51 -15 -51 -36 0 -21 3 -23 26 -18 59 15 85 15 31 0
l-58 -16 1 -168 2 -167 39 7 c30 6 39 4 39 -6 0 -8 -9 -14 -20 -14 -11 0 -20
-4 -20 -10 0 -5 -9 -10 -20 -10 -18 0 -20 -7 -20 -55 l0 -55 48 1 c26 0 80 -6
119 -14 40 -8 73 -13 73 -10 0 9 -28 32 -33 27 -2 -3 -17 -2 -32 2 -19 5 -23
9 -14 15 7 4 18 4 25 -2 7 -6 17 -2 29 11 16 18 42 19 31 1 -6 -9 173 -33 299
-40 5 -1 -1 -8 -13 -17 -12 -8 -27 -12 -33 -8 -7 4 -9 0 -5 -14 7 -22 -8 -39
-19 -22 -3 5 -21 10 -40 10 -65 0 -88 -23 -35 -35 34 -7 41 -25 9 -25 -24 0
-49 22 -49 43 0 18 -22 27 -52 22 -13 -3 -49 1 -81 7 -57 12 -58 12 -82 -16
-14 -16 -25 -24 -25 -18 0 6 7 17 15 26 20 19 19 25 -2 22 -10 -2 -35 3 -57
10 -45 16 -68 18 -46 4 12 -8 11 -10 -7 -10 -14 0 -23 -6 -23 -16 0 -10 6 -14
15 -10 8 3 15 1 15 -5 0 -5 -6 -12 -14 -15 -18 -7 -15 -62 4 -74 13 -8 12 -10
-2 -10 -16 0 -18 -15 -18 -166 0 -153 1 -166 17 -160 10 4 14 3 9 -1 -4 -4 41
-20 101 -35 102 -25 104 -26 48 -23 -33 2 -61 4 -62 6 -2 1 -6 2 -10 4 -5 1
-15 4 -23 7 -29 12 -80 17 -80 10 0 -5 21 -16 48 -24 l47 -16 -48 4 -48 4 3
-32 c3 -28 8 -34 43 -44 l40 -12 -45 -2 c-35 -1 -40 -3 -25 -10 17 -7 17 -9 3
-9 -13 -1 -18 -9 -18 -31 0 -17 7 -33 18 -39 16 -10 16 -10 0 -11 -15 0 -18
-10 -18 -60 0 -33 4 -60 10 -60 6 0 10 -5 10 -11 0 -5 -4 -7 -10 -4 -5 3 -10
0 -10 -8 0 -8 15 -19 32 -25 19 -6 24 -11 13 -10 -39 1 -45 -2 -45 -22 0 -16
7 -20 33 -21 17 -1 36 -1 40 0 5 1 6 -3 2 -9 -4 -6 -21 -8 -41 -4 -32 6 -34 5
-32 -20 2 -19 7 -25 19 -21 9 3 29 0 45 -6 29 -11 94 -20 167 -23 20 0 37 -4
37 -7 0 -6 48 -16 119 -25 36 -4 52 6 46 27 -4 11 -3 19 2 20 4 0 18 2 31 5
13 2 21 1 19 -3 -3 -5 20 -9 51 -9 32 -1 75 -4 97 -7 22 -3 74 -10 115 -16 85
-12 165 -35 188 -53 12 -10 16 -10 19 0 6 17 33 15 33 -3 0 -17 16 -20 25 -5
5 8 12 7 23 -2 13 -11 14 -11 8 1 -5 8 -3 17 5 22 17 11 59 12 59 1 0 -4 17
-8 38 -9 56 -3 122 -12 172 -22 25 -6 65 -13 90 -17 25 -3 54 -9 65 -11 38
-10 90 -15 148 -14 33 0 68 -4 79 -10 15 -8 22 -8 28 2 7 10 18 9 55 -6 33
-12 49 -14 54 -6 5 7 16 4 34 -11 29 -23 57 -32 57 -18 0 5 -4 12 -10 15 -5 3
-10 12 -10 18 0 10 33 10 148 1 81 -6 167 -10 192 -8 31 2 51 -2 64 -14 11 -9
16 -12 13 -6 -9 16 22 20 138 17 124 -3 109 -3 180 1 62 3 162 14 205 23 14 2
38 6 54 9 16 2 46 9 68 14 21 6 71 10 109 9 46 -1 73 2 78 10 4 6 19 14 32 16
13 3 38 9 54 15 l30 10 -37 -3 c-29 -2 -35 0 -26 10 17 21 76 16 83 -7 8 -24
21 -25 41 -5 9 8 25 15 37 15 93 1 231 11 277 20 30 5 67 12 81 14 15 3 43 11
62 20 20 8 48 16 64 18 15 2 34 8 40 15 7 6 32 14 55 18 23 4 63 17 88 28 25
11 48 20 53 19 4 -1 7 4 7 12 0 10 12 12 43 10 30 -3 38 -1 27 6 -8 5 -35 8
-58 5 -44 -5 -55 8 -21 27 22 12 122 55 146 62 11 4 27 13 33 21 7 8 23 15 36
15 12 0 26 5 29 10 8 14 45 13 45 -1 0 -18 -49 -59 -70 -59 -20 0 -36 -17 -25
-28 3 -3 11 0 16 8 8 11 12 12 16 2 3 -9 22 -3 66 21 34 19 73 40 86 47 19 10
21 14 10 22 -11 7 -9 8 5 4 11 -4 33 2 51 13 18 10 47 22 64 26 17 4 31 10 31
14 0 5 27 9 61 10 34 1 66 4 72 8 6 4 23 8 37 10 14 1 52 7 85 12 52 8 48 9
-35 4 -52 -3 -118 -6 -147 -6 -29 0 -50 -4 -47 -8 3 -5 -1 -9 -9 -9 -8 0 -17
6 -20 14 -6 14 30 26 79 26 17 0 24 6 24 18 0 14 18 24 73 42 39 14 74 25 77
26 8 1 63 15 83 21 10 2 26 13 36 24 15 16 26 18 60 13 30 -5 41 -11 37 -20
-3 -8 1 -15 9 -15 17 -2 34 -5 38 -9 1 -1 21 -4 44 -6 28 -2 42 0 40 8 -1 7
17 11 51 12 28 0 52 3 52 6 0 11 59 10 66 -1 9 -15 -17 -30 -35 -19 -9 5 -20
2 -29 -7 -8 -8 -18 -11 -21 -6 -3 4 -20 8 -37 8 -22 0 -30 -4 -26 -13 2 -8 13
-11 23 -9 11 3 22 1 25 -4 3 -5 25 -9 50 -9 32 0 44 -4 44 -15 0 -17 -25 -20
-35 -5 -7 12 -65 -18 -65 -33 0 -5 31 -6 73 -2 83 8 78 8 136 1 24 -3 50 -11
57 -17 8 -6 14 -9 14 -5 0 4 14 -1 30 -9 17 -9 36 -13 42 -9 6 4 8 3 4 -4 -3
-6 2 -13 11 -15 12 -3 9 -5 -8 -6 -14 0 -29 2 -33 6 -17 17 -132 10 -121 -7 3
-5 31 -12 63 -15 89 -10 103 -13 116 -24 6 -5 31 -14 54 -19 l42 -10 0 37 c0
20 -4 42 -9 50 -6 9 -5 21 2 33 14 21 -2 37 -40 39 -42 3 -46 4 -50 15 -3 8
12 10 47 6 l50 -5 0 38 c0 36 -1 37 -30 32 -16 -4 -30 -2 -30 3 0 5 -6 7 -14
4 -8 -3 -26 7 -41 22 -17 17 -21 24 -10 20 12 -4 16 -2 12 8 -6 15 45 42 61
32 5 -3 18 2 30 10 19 13 22 25 22 89 0 47 -4 77 -12 81 -7 5 -64 7 -128 7
-113 -1 -117 -1 -185 34 -38 19 -75 39 -82 45 -7 5 -18 6 -25 2 -7 -4 -10 -3
-5 1 4 5 -5 14 -20 21 -28 12 -28 12 15 13 64 1 50 21 -15 22 -90 1 -158 20
-172 47 -11 23 -35 171 -28 178 3 3 44 -24 92 -60 48 -37 99 -69 114 -72 33
-8 141 -73 141 -85 0 -5 -18 -9 -40 -9 -22 0 -40 -3 -40 -7 0 -5 88 -9 195 -9
l195 -2 0 35 0 34 -82 -1 c-136 -2 -130 -4 -126 27 l3 28 103 3 c91 2 103 5
100 20 -3 15 -23 17 -188 19 -141 2 -185 6 -185 15 0 10 43 13 190 12 105 -1
174 1 155 5 -19 4 -121 8 -227 8 -218 2 -209 -1 -350 100 -46 32 -114 80 -153
107 -38 27 -67 52 -65 57 3 4 33 8 68 8 34 0 125 4 202 10 81 6 227 8 348 4
l207 -6 0 24 0 24 -125 -1 c-97 -1 -121 2 -108 11 8 6 26 10 39 7 18 -3 24 0
24 13 0 14 -6 16 -37 11 -21 -4 -67 -11 -103 -16 -36 -5 -89 -14 -119 -19 -29
-6 -56 -9 -61 -6 -5 3 -225 9 -618 15 -7 0 -10 4 -7 10 3 6 -1 7 -9 4 -9 -3
-16 -1 -16 5 0 6 4 11 10 11 6 0 5 10 -2 25 -7 15 -20 25 -32 25 -20 0 -20 0
0 16 19 15 18 15 -3 11 -13 -3 -23 -1 -23 4 0 13 57 11 83 -3 25 -13 105 -12
122 2 19 16 64 19 355 26 336 7 407 7 535 -1 84 -6 98 -5 87 6 -11 11 -91 14
-430 12 -282 -2 -422 1 -432 8 -13 9 -13 10 1 6 9 -3 21 -1 27 5 9 9 229 11
572 5 47 0 127 0 178 1 84 2 92 4 92 21 0 19 -10 20 -350 17 -273 -2 -350 0
-350 10 0 7 8 10 20 7 12 -3 20 0 20 7 0 7 7 10 16 6 8 -3 31 1 51 9 29 12 72
15 197 13 214 -4 396 9 396 28 0 10 -14 14 -47 15 -80 1 -98 17 -21 18 l68 1
-2 38 -1 38 -61 -7 c-34 -4 -106 -9 -161 -12 -120 -6 -85 5 90 29 66 9 124 20
130 25 14 14 -12 11 -184 -16 -86 -13 -219 -29 -295 -34 l-139 -10 -38 32
c-21 18 -39 35 -39 40 0 4 -6 7 -14 7 -8 0 -16 7 -20 15 -6 18 24 21 41 4 12
-12 37 -3 29 10 -6 10 490 45 589 42 50 -2 75 8 75 29 0 12 -7 20 -17 20 -17
0 -165 -13 -499 -45 -180 -18 -184 -18 -184 -5 0 6 17 10 38 10 21 0 42 4 47
9 10 10 390 65 527 76 43 4 81 12 85 18 4 6 0 8 -9 5 -8 -4 -57 -9 -109 -13
-138 -11 -104 9 75 43 22 4 42 14 44 21 4 11 -5 12 -44 7 -49 -7 -169 -34
-274 -61 -107 -27 -343 -60 -359 -50 -14 8 -2 35 15 35 8 0 14 -4 14 -10 0 -5
4 -10 9 -10 5 0 7 9 4 20 -4 15 0 20 15 20 23 0 35 23 20 38 -20 20 35 33 310
73 152 22 282 45 287 51 11 12 22 13 -255 -26 -102 -15 -219 -33 -260 -40 -52
-10 -79 -11 -87 -4 -9 7 -13 7 -13 -1 0 -7 -4 -9 -10 -6 -9 6 8 34 20 32 3 0
21 3 40 6 113 21 348 58 429 67 70 8 97 8 107 -1 17 -14 20 -12 29 24 l7 27
-58 -5 c-78 -8 -284 -33 -410 -51 -137 -19 -180 -18 -194 4 -11 16 -11 16 -6
0 4 -13 0 -18 -14 -18 -11 0 -20 5 -20 11 0 5 -16 17 -35 25 -20 8 -45 24 -56
35 -17 17 -23 18 -37 7 -14 -11 -15 -11 -9 5 5 14 -1 21 -26 32 -17 8 -28 14
-23 15 6 0 1 6 -9 14 -18 13 -16 15 25 20 25 3 83 8 130 11 47 3 135 15 195
25 61 11 132 22 158 24 27 3 52 8 56 11 5 2 79 11 166 20 158 15 203 24 129
26 l-39 2 38 10 c28 8 37 16 37 32 0 21 -3 22 -47 15 -27 -5 -91 -14 -143 -20
-52 -7 -124 -19 -159 -26 -72 -16 -87 -11 -51 16 30 23 25 29 -29 35 -101 10
-108 31 -13 40 105 9 221 26 287 40 33 8 81 16 106 20 l47 6 0 100 c0 95 -1
101 -19 96 -10 -3 -22 -1 -25 4 -3 5 6 9 20 9 17 0 26 6 26 15 0 13 -17 15
-102 15 -57 -1 -128 4 -158 10 -30 6 -60 11 -67 12 -7 1 -10 5 -7 10 3 5 10 6
15 3 5 -4 9 -2 9 4 0 5 -10 12 -22 14 -13 3 58 3 157 1 122 -2 167 0 140 6
-22 5 -81 9 -132 9 -50 1 -94 5 -97 10 -7 11 78 21 182 21 l82 0 0 31 c0 28
-2 30 -27 25 -36 -8 -78 -8 -132 -2 -24 3 -49 2 -55 -3 -6 -4 -42 -7 -81 -6
-38 2 -78 -2 -89 -7 -27 -15 -168 -11 -177 4 -5 7 -23 12 -41 11 -18 -1 -27 0
-20 3 15 7 -25 48 -55 59 -21 7 -68 44 -62 49 3 3 364 11 727 16 6 0 12 10 12
23 l0 22 -387 -3 c-214 -1 -399 1 -413 4 l-25 7 25 7 c19 6 11 8 -31 9 -39 1
-61 6 -70 17 -14 17 10 17 186 3 11 -1 5 -5 -15 -9 -20 -4 43 -7 145 -6 107 0
183 5 187 11 5 6 8 5 8 -2 0 -8 12 -13 28 -12 l27 1 -25 7 -25 7 25 7 c14 4
100 7 193 7 160 0 167 1 167 20 0 19 -8 19 -412 18 -556 -1 -574 -1 -591 17
-8 8 -17 12 -20 9 -8 -8 -47 19 -47 33 0 7 -7 13 -15 13 -8 0 -15 5 -15 10 0
6 -10 10 -22 11 l-23 0 22 9 c12 5 66 7 120 4 54 -2 179 -3 278 -2 99 1 303 2
453 2 l272 0 0 28 0 27 -482 -4 c-266 -1 -538 -6 -604 -10 -119 -8 -122 -7
-134 14 -6 12 -19 21 -28 19 -25 -4 -64 26 -57 44 5 13 46 15 268 16 1100 3
1037 1 1037 21 0 26 -83 30 -660 32 -272 1 -553 2 -623 3 l-129 1 -26 30 c-14
17 -29 29 -34 28 -4 -2 -8 4 -8 12 0 9 -7 18 -15 21 -8 4 -15 15 -15 25 0 37
42 42 315 39 414 -5 649 -5 815 -2 85 2 206 0 268 -4 74 -4 112 -3 112 4 0 5
-6 10 -12 9 -7 0 -35 1 -63 2 -41 3 -46 4 -25 11 14 4 42 8 63 9 20 1 37 5 37
10 0 13 -157 16 -842 16 -318 0 -578 1 -578 2 0 1 24 26 53 56 l53 54 630 -3
c346 -1 636 -4 644 -8 21 -8 44 9 37 27 -3 9 -21 17 -39 20 l-33 4 38 1 c20 1
37 5 37 10 0 4 -24 6 -52 5 -39 -2 -48 0 -33 6 11 5 35 10 53 10 18 1 32 6 32
14 0 14 -128 13 -445 -3 -320 -17 -395 -18 -400 -10 -3 5 25 11 62 15 38 3
102 11 143 16 41 5 175 10 298 10 122 1 222 6 222 10 0 5 -6 10 -12 10 -7 1
21 7 62 14 107 18 37 18 -155 0 -88 -8 -257 -16 -375 -17 -138 -1 -186 -4
-135 -7 l80 -6 -60 -8 c-111 -15 -155 -15 -155 -1 0 7 10 15 23 18 12 3 -17 3
-65 2 l-88 -4 0 34 c0 33 2 34 38 34 20 0 123 7 227 16 116 9 297 15 463 15
l272 -1 0 35 0 36 -149 -3 c-82 -2 -147 -6 -145 -9 2 -3 -145 -10 -327 -15
-327 -9 -330 -9 -327 11 3 17 12 20 53 22 28 2 115 10 195 18 137 14 283 22
465 26 52 1 70 4 50 8 -44 9 -21 18 70 25 94 8 115 14 115 28 0 12 -75 7 -270
-17 -63 -7 -187 -16 -275 -20 -88 -3 -183 -8 -212 -11 l-51 -6 -7 46 c-11 70
-7 73 87 80 147 11 238 16 402 21 89 3 198 8 244 11 l82 6 0 29 c0 16 -3 29
-7 30 -5 0 -66 2 -138 3 -71 2 -147 7 -168 11 -29 5 -38 3 -43 -9 -3 -9 -10
-16 -15 -16 -4 0 -6 7 -3 14 4 12 -2 14 -29 13 -35 -2 -41 -16 -9 -18 55 -5
-122 -15 -220 -13 -69 1 -118 -2 -118 -7 0 -6 -7 -6 -17 -1 -27 14 -122 22
-128 11 -4 -5 7 -9 23 -9 16 0 45 -3 63 -7 28 -7 20 -9 -46 -13 -94 -7 -113
-3 -88 15 15 11 15 15 4 29 -11 13 -11 19 -1 31 7 8 10 15 7 15 -3 0 1 16 9
35 7 19 14 44 14 56 0 18 -3 19 -15 9 -8 -6 -18 -9 -24 -6 -13 9 -41 -4 -41
-19 0 -7 -11 -12 -25 -12 -15 0 -22 4 -18 10 4 7 0 8 -13 3 -10 -4 -35 -10
-54 -14 -37 -6 -63 -25 -52 -37 4 -5 1 -5 -7 0 -8 4 -17 2 -22 -6 -7 -11 -9
-11 -9 -1 0 7 -5 10 -10 7 -6 -4 -10 12 -10 39 l0 46 43 0 c23 0 106 5 185 12
115 10 142 15 143 28 0 9 2 10 5 3 5 -12 237 -11 637 2 150 5 181 10 156 26
-10 6 -6 9 14 9 20 0 27 5 27 20 0 19 -5 20 -137 14 -76 -3 -214 -11 -308 -19
-93 -8 -195 -12 -225 -10 -81 8 -324 8 -348 1 -11 -4 -23 -2 -27 4 -3 5 -2 10
3 10 5 0 7 19 5 43 l-5 43 128 12 c71 7 242 12 379 12 138 0 288 4 335 10 47
5 105 10 130 11 61 3 70 7 70 35 l0 23 -177 -4 c-288 -6 -498 -14 -663 -25
-85 -5 -251 -12 -367 -15 l-213 -5 -1 60 c-1 33 -3 65 -4 70 -1 6 -3 15 -4 20
0 6 -8 10 -16 10 -12 0 -15 -15 -15 -79 l0 -80 -112 -3 c-62 -2 -215 -5 -340
-6 -185 -2 -228 0 -228 11 0 7 6 19 12 25 10 10 10 15 -1 21 -11 7 -11 9 0 14
10 4 8 6 -4 6 -10 1 -17 7 -14 14 2 6 11 12 19 11 9 -1 14 9 14 32 0 30 -3 34
-27 34 -17 0 -38 -12 -57 -31 -33 -34 -52 -32 -52 7 0 13 -4 24 -10 24 -5 0
-10 -25 -10 -55 0 -53 -1 -55 -20 -43 -15 10 -20 24 -20 55 l0 43 -299 0 -299
0 -7 -46 c-8 -58 -31 -55 -27 4 3 37 1 42 -18 42 -20 0 -21 -4 -18 -46 l3 -47
-124 -4 c-68 -3 -242 1 -385 9 -144 7 -357 12 -473 11 l-213 -3 0 40 c0 29 -4
40 -15 40 -11 0 -15 -11 -15 -39 0 -37 -1 -39 -37 -43 -21 -3 -135 -5 -253 -6
-118 -1 -276 -7 -351 -13 -75 -7 -144 -9 -153 -6 -12 5 -16 19 -16 57 l0 50
-380 0 -380 0 0 -550z m2787 434 c-3 -3 -12 -4 -19 -1 -8 3 -5 6 6 6 11 1 17
-2 13 -5z m-1984 -11 c-7 -2 -21 -2 -30 0 -10 3 -4 5 12 5 17 0 24 -2 18 -5z
m1051 -40 c12 -78 33 -72 -231 -72 -131 0 -254 -3 -273 -6 -49 -9 -821 -11
-826 -3 -3 4 -2 25 2 46 l6 40 222 7 c248 8 788 21 972 23 l121 2 7 -37z m326
23 c0 -7 -9 -16 -19 -19 -11 -3 -22 -17 -26 -36 -4 -17 -11 -31 -16 -31 -6 0
-7 -5 -3 -11 8 -14 -205 -10 -223 4 -8 5 -13 31 -13 58 l0 49 150 0 c121 0
150 -3 150 -14z m555 -12 c138 -3 251 -8 253 -9 2 -2 1 -28 -3 -59 l-7 -55
-87 5 c-47 2 -158 10 -246 16 -88 7 -215 13 -282 13 -68 0 -123 3 -123 8 0 4
5 7 10 7 6 0 10 5 10 11 0 5 -4 7 -10 4 -14 -9 -12 31 3 56 11 19 18 20 122
15 61 -3 223 -9 360 -12z m310 -32 c6 -40 -7 -92 -25 -92 -6 0 -10 27 -10 65
0 49 3 65 14 65 9 0 17 -15 21 -38z m575 28 c0 -5 -7 -10 -15 -10 -8 0 -15 5
-15 10 0 6 7 10 15 10 8 0 15 -4 15 -10z m1975 0 c-27 -5 -111 -8 -185 -8 -90
1 -120 3 -90 8 25 4 108 7 185 7 102 0 127 -2 90 -7z m-905 -29 c0 -19 -190
-28 -265 -12 -24 5 -17 7 35 12 108 9 230 10 230 0z m90 -1 c-20 -13 -50 -13
-50 0 0 6 15 10 33 10 24 0 28 -3 17 -10z m-990 -19 c40 -6 33 -8 -63 -15 -59
-5 -110 -6 -113 -3 -25 25 74 35 176 18z m694 -12 l196 -1 0 -44 c0 -36 -3
-44 -18 -44 -10 0 -22 -3 -25 -6 -4 -4 -23 -8 -44 -9 -21 -2 -101 -8 -178 -14
-77 -6 -162 -9 -190 -7 -27 2 -103 4 -168 5 -67 0 -116 5 -113 10 3 5 -1 12
-10 15 -21 8 -36 8 -31 -1 3 -5 -11 -8 -31 -8 -21 0 -41 -2 -47 -4 -23 -12
-275 -27 -275 -17 0 4 9 29 21 55 l20 48 182 8 c100 4 236 11 302 15 66 4 141
6 166 3 26 -2 135 -4 243 -4z m-2835 -33 c-8 -8 -165 -12 -189 -5 -15 4 21 7
84 8 60 1 107 -1 105 -3z m-889 -27 c-47 -7 -138 -10 -217 -8 -13 1 -23 5 -23
10 0 9 203 17 260 10 32 -5 30 -6 -20 -12z m1785 11 c13 -5 -29 -9 -110 -9
-71 0 -139 4 -150 9 -13 5 29 9 110 9 72 0 139 -4 150 -9z m-468 -34 c1 0 5
-14 9 -30 6 -25 4 -28 -10 -23 -19 8 -21 -4 -3 -22 10 -11 9 -13 -1 -7 -10 6
-11 -2 -6 -33 5 -29 3 -41 -5 -41 -7 0 -10 -4 -6 -9 10 -17 -26 -42 -54 -37
-14 3 -97 8 -183 12 l-158 6 0 93 c0 50 2 94 5 97 4 4 406 -1 412 -6z m837
-23 c10 -65 7 -92 -13 -102 -26 -14 -31 10 -19 83 12 65 23 72 32 19z m-1279
-59 c8 -97 4 -103 -55 -104 -19 0 -96 -4 -170 -8 -130 -7 -185 -7 -608 -4
l-193 2 7 88 c4 48 7 88 8 88 0 1 125 5 276 8 151 4 276 9 279 12 2 2 104 4
226 4 l223 0 7 -86z m1105 68 l105 -7 3 -65 c2 -56 0 -69 -20 -89 -13 -15 -23
-20 -26 -13 -3 9 -8 8 -17 -2 -11 -11 -64 -13 -282 -8 -147 2 -270 6 -272 8
-3 3 -4 37 -4 77 2 101 2 99 13 92 5 -3 8 0 5 7 -4 10 33 12 192 10 109 -2
245 -6 303 -10z m2747 -8 c-3 -3 -12 -4 -19 -1 -8 3 -5 6 6 6 11 1 17 -2 13
-5z m223 -4 c0 -5 -12 -10 -27 -9 l-28 1 25 8 c14 4 26 8 28 9 1 1 2 -3 2 -9z
m-2843 -22 c-3 -8 -6 -5 -6 6 -1 11 2 17 5 13 3 -3 4 -12 1 -19z m1923 -4 c0
-2 -17 -4 -37 -3 -29 0 -33 2 -18 8 18 7 55 4 55 -5z m-110 -4 c0 -5 -9 -10
-20 -10 -11 0 -20 5 -20 10 0 6 9 10 20 10 11 0 20 -4 20 -10z m-57 -7 c-7 -2
-21 -2 -30 0 -10 3 -4 5 12 5 17 0 24 -2 18 -5z m-211 -31 c56 -2 57 -2 68
-39 7 -21 18 -45 26 -53 14 -17 0 -45 -23 -45 -15 0 -50 -24 -72 -47 -16 -18
-37 -25 -27 -9 3 5 -5 11 -19 13 -14 3 -26 0 -29 -8 -3 -7 -13 -13 -23 -13
-10 -1 -74 -5 -143 -10 -118 -8 -350 -6 -378 4 -9 3 -8 10 5 24 10 11 34 37
53 58 20 21 48 57 62 80 23 35 33 42 65 45 38 3 328 3 435 0z m-862 -16 c0
-17 -27 -29 -35 -16 -4 6 -3 15 0 20 9 15 35 12 35 -4z m970 -22 c0 -14 -4
-22 -10 -19 -5 3 -10 17 -10 31 0 14 4 22 10 19 6 -3 10 -17 10 -31z m-890 22
c0 -3 -4 -8 -10 -11 -5 -3 -10 -1 -10 4 0 6 5 11 10 11 6 0 10 -2 10 -4z m213
-83 c-7 -2 -21 -2 -30 0 -10 3 -4 5 12 5 17 0 24 -2 18 -5z m-2225 -10 c-10
-2 -28 -2 -40 0 -13 2 -5 4 17 4 22 1 32 -1 23 -4z m77 -3 c-27 -12 -35 -12
-35 0 0 6 12 10 28 9 24 0 25 -1 7 -9z m38 -40 l117 0 0 -61 0 -61 -52 7 c-29
3 -349 8 -711 10 -361 2 -662 7 -667 10 -6 3 -10 26 -10 49 l0 43 372 2 c205
1 373 3 374 4 1 1 105 1 231 0 125 -2 281 -3 346 -3z m302 -4 c-12 -8 -16 -19
-12 -31 6 -14 10 -15 22 -5 12 10 15 9 15 -4 0 -10 -8 -16 -22 -16 -17 0 -19
-3 -10 -12 7 -7 8 -17 1 -30 -8 -15 -22 -18 -80 -18 l-70 0 3 58 3 57 75 6
c41 3 79 6 84 7 6 1 1 -4 -9 -12z m525 -4 c9 -1 2 -10 -18 -22 -18 -11 -39
-20 -45 -19 -35 4 -59 -4 -81 -28 -21 -23 -33 -27 -97 -29 -83 -4 -89 0 -89
61 l0 40 158 -1 c86 0 164 -1 172 -2z m66 -9 c-10 -10 -46 -11 -46 -1 0 4 12
8 27 8 14 0 23 -3 19 -7z m2821 1 c-3 -3 -12 -4 -19 -1 -8 3 -5 6 6 6 11 1 17
-2 13 -5z m53 -40 c0 -2 -12 -4 -27 -4 -21 0 -24 3 -14 9 13 8 41 5 41 -5z
m210 6 c-77 -11 -150 -12 -150 -1 0 5 46 9 103 9 89 0 95 -1 47 -8z m-1822
-41 c77 -1 95 -3 65 -8 -67 -11 -62 -21 10 -21 38 0 67 -4 67 -10 0 -5 -10
-11 -22 -12 -52 -3 -78 -16 -71 -34 3 -8 0 -14 -6 -14 -6 0 -11 6 -11 14 0 10
-13 13 -56 10 -31 -2 -63 -5 -72 -8 -10 -3 -39 -8 -65 -12 l-48 -6 3 34 3 33
105 5 c93 4 100 6 56 13 -27 4 -65 7 -85 7 -27 0 -32 3 -21 10 8 5 21 8 28 5
8 -3 62 -6 120 -6z m1022 2 c0 -9 -89 -21 -103 -14 -4 3 -5 9 -2 14 8 12 105
12 105 0z m119 5 c-12 -10 -79 -16 -79 -6 0 5 19 10 42 10 23 0 39 -2 37 -4z
m-4359 -36 c10 -7 -28 -10 -117 -10 -82 0 -133 4 -133 10 0 13 230 13 250 0z
m620 -10 c11 -7 8 -10 -15 -9 -16 0 -39 4 -50 9 -16 7 -14 9 15 9 19 0 42 -4
50 -9z m3624 -12 c3 -13 6 -38 6 -55 l0 -33 -95 0 c-52 0 -95 3 -95 8 0 4 16
28 35 55 34 46 36 47 89 47 47 0 54 -3 60 -22z m-3524 8 c0 -9 -39 -13 -51 -5
-10 6 -4 9 19 9 17 0 32 -2 32 -4z m-109 -21 c17 -7 32 -52 19 -60 -4 -2 -47
0 -96 5 -49 5 -180 10 -291 10 l-203 0 0 32 0 31 278 -6 c152 -3 284 -8 293
-12z m727 1 c22 -6 28 -12 20 -18 -10 -6 -10 -8 0 -8 6 0 12 -5 12 -11 0 -5
-4 -8 -9 -5 -5 4 -11 2 -13 -3 -1 -4 -157 -12 -345 -15 l-343 -8 0 31 0 31 68
1 c37 1 139 5 227 9 214 10 343 8 383 -4z m2057 4 c-3 -5 -10 -10 -16 -10 -5
0 -9 5 -9 10 0 6 7 10 16 10 8 0 12 -4 9 -10z m-405 -23 c0 -13 -7 -32 -16
-43 -12 -14 -14 -15 -11 -3 3 9 1 21 -4 26 -13 13 -1 43 17 43 8 0 14 -10 14
-23z m-1351 4 c18 -11 5 -31 -20 -31 -12 0 -17 -4 -13 -11 4 -7 1 -10 -7 -7
-8 2 -15 17 -17 31 -3 22 1 27 20 27 13 0 29 -4 37 -9z m-1574 -51 c52 -6 45
-7 -55 -8 -63 0 -133 3 -155 7 -53 11 123 12 210 1z m296 -8 c-30 -2 -58 0
-62 5 -4 4 20 6 54 3 l62 -5 -54 -3z m943 -2 c83 0 47 -7 -72 -14 -133 -7
-213 5 -92 15 41 3 84 4 95 3 11 -2 42 -4 69 -4z m-814 -31 c52 -6 131 -13
175 -16 44 -3 81 -6 82 -7 2 -1 6 -17 9 -35 l7 -33 -79 6 c-43 3 -106 6 -139
6 -33 0 -102 4 -152 10 -82 9 -138 14 -298 25 -22 2 -95 3 -162 4 l-123 1 0
29 0 29 293 -4 c160 -3 335 -9 387 -15z m270 12 c0 -19 -22 -22 -98 -15 -61 6
-71 9 -47 15 46 10 145 10 145 0z m220 -9 c15 -4 -18 -9 -85 -12 -100 -5 -124
-1 -125 21 0 7 178 0 210 -9z m3270 -2 c0 -5 -23 -10 -52 -10 -60 0 -51 14 11
18 23 1 41 -2 41 -8z m67 4 c-3 -3 -12 -4 -19 -1 -8 3 -5 6 6 6 11 1 17 -2 13
-5z m-2961 -44 c0 -19 2 -42 5 -50 3 -11 -5 -15 -33 -14 -20 1 -44 5 -55 9
-10 5 -23 7 -30 6 -6 -1 -14 8 -18 19 -4 11 -11 18 -16 15 -5 -4 -9 -1 -9 5 0
6 -4 9 -9 5 -5 -3 -17 3 -27 12 -17 17 -14 18 57 24 130 10 134 9 135 -31z
m2732 33 c-10 -2 -26 -2 -35 0 -10 3 -2 5 17 5 19 0 27 -2 18 -5z m-3060 -43
c2 -24 -2 -31 -23 -36 -14 -3 -34 -4 -45 -1 -11 3 -22 1 -25 -3 -3 -5 3 -11
12 -13 10 -3 0 -5 -22 -5 -31 0 -35 1 -20 8 24 10 12 12 -67 10 l-58 -1 0 30
c0 35 4 36 150 39 l96 2 2 -30z m3070 8 c3 -15 -4 -18 -47 -18 -28 0 -51 4
-51 10 0 31 92 39 98 8z m29 -10 c-3 -8 -6 -5 -6 6 -1 11 2 17 5 13 3 -3 4
-12 1 -19z m-4084 -15 c-29 -2 -77 -2 -105 0 -29 2 -6 3 52 3 58 0 81 -1 53
-3z m165 -19 c17 -3 32 -10 32 -16 0 -10 -215 -5 -360 7 -19 2 -68 4 -107 4
-40 1 -73 4 -73 9 0 8 455 5 508 -4z m3942 5 c41 1 84 3 95 3 70 4 148 -3 138
-13 -11 -11 -340 -23 -386 -13 -22 5 -26 9 -16 20 8 10 23 12 53 7 22 -3 75
-5 116 -4z m-3087 -54 c-2 -5 -29 -11 -62 -12 -45 -1 -61 2 -65 13 -5 12 5 14
62 12 38 -2 66 -7 65 -13z m2956 9 c27 -6 31 -10 31 -40 0 -33 -1 -34 -42 -34
-24 0 -60 -3 -82 -7 -35 -6 -38 -5 -28 13 17 31 60 74 75 74 8 0 29 -3 46 -6z
m71 -28 c0 -14 -4 -28 -10 -31 -6 -4 -10 7 -10 24 0 17 5 31 10 31 6 0 10 -11
10 -24z m-3812 -70 c3 -12 -1 -17 -10 -14 -7 3 -15 13 -16 22 -3 12 1 17 10
14 7 -3 15 -13 16 -22z m3930 6 c2 -8 -8 -12 -27 -12 -36 0 -50 17 -19 23 31
6 41 3 46 -11z m2 -31 c0 -5 -8 -11 -17 -13 -25 -6 -54 3 -47 13 7 12 64 12
64 0z m771 -38 c7 -7 -181 -8 -431 -2 -56 2 -59 3 -25 8 59 9 446 4 456 -6z
m-5486 -13 c4 -6 -5 -10 -19 -10 -14 0 -26 5 -26 10 0 6 9 10 19 10 11 0 23
-4 26 -10z m1005 -75 c10 -13 9 -15 -8 -15 -12 0 -23 4 -26 9 -3 5 -16 7 -29
4 -18 -4 -19 -3 -7 6 22 15 56 13 70 -4z m35 -91 c20 -64 14 -77 -36 -72 -33
3 -34 4 -37 52 -4 62 2 76 31 76 21 0 27 -8 42 -56z m3962 -4 c34 -7 30 -8
-32 -10 -172 -6 -335 -1 -335 10 0 12 306 11 367 0z m-4050 -15 c3 -9 3 -18 1
-20 -6 -7 -58 18 -58 28 0 14 51 7 57 -8z m3503 -199 c8 -2 -25 -4 -75 -4 -49
0 -99 3 -109 7 -18 7 151 4 184 -3z m1110 4 c0 -5 -19 -9 -42 -9 l-43 2 40 7
c22 4 41 8 43 9 1 0 2 -3 2 -9z m-733 -6 c-3 -3 -12 -4 -19 -1 -8 3 -5 6 6 6
11 1 17 -2 13 -5z m46 -1 c-7 -2 -19 -2 -25 0 -7 3 -2 5 12 5 14 0 19 -2 13
-5z m-276 -9 c-3 -3 -12 -4 -19 -1 -8 3 -5 6 6 6 11 1 17 -2 13 -5z m40 0 c-3
-3 -12 -4 -19 -1 -8 3 -5 6 6 6 11 1 17 -2 13 -5z m-347 -14 c0 -5 -8 -10 -17
-10 -15 0 -16 2 -3 10 19 12 20 12 20 0z m-3380 -75 c0 -8 -4 -15 -10 -15 -5
0 -23 -13 -40 -30 l-31 -30 -137 0 c-75 0 -155 3 -177 7 l-40 7 30 7 c95 24
133 31 255 48 74 11 138 19 143 20 4 1 7 -6 7 -14z m-347 -92 c-7 -2 -21 -2
-30 0 -10 3 -4 5 12 5 17 0 24 -2 18 -5z m65 0 c-10 -2 -26 -2 -35 0 -10 3 -2
5 17 5 19 0 27 -2 18 -5z m135 -10 c-13 -2 -33 -2 -45 0 -13 2 -3 4 22 4 25 0
35 -2 23 -4z m-193 -19 c0 -2 -21 -4 -46 -4 -25 0 -43 4 -40 8 4 7 86 4 86 -4z
m178 -3 c11 -6 10 -9 -5 -12 -30 -7 -143 2 -143 12 0 11 130 12 148 0z m-32
-35 c12 -13 11 -16 -7 -21 -11 -4 -23 -4 -26 -1 -4 3 -17 -1 -29 -9 -29 -19
-54 -9 -54 21 0 22 4 24 51 24 30 0 56 -6 65 -14z m4227 -33 c-7 -2 -19 -2
-25 0 -7 3 -2 5 12 5 14 0 19 -2 13 -5z m75 0 c-10 -2 -28 -2 -40 0 -13 2 -5
4 17 4 22 1 32 -1 23 -4z m-4418 -33 c0 -4 -11 -5 -25 -2 -14 2 -23 8 -20 12
6 10 45 1 45 -10z m4285 -60 c8 -13 -15 -13 -35 0 -12 8 -11 10 7 10 12 0 25
-4 28 -10z m155 0 c18 -6 8 -8 -40 -9 -36 0 -72 4 -80 9 -19 12 82 12 120 0z
m118 -7 c-15 -2 -42 -2 -60 0 -18 2 -6 4 27 4 33 0 48 -2 33 -4z m-208 -146
c0 -8 -7 -14 -15 -14 -25 0 -17 17 13 26 1 1 2 -5 2 -12z m227 -53 c-3 -3 -12
-4 -19 -1 -8 3 -5 6 6 6 11 1 17 -2 13 -5z m-5164 -131 c-7 -2 -21 -2 -30 0
-10 3 -4 5 12 5 17 0 24 -2 18 -5z m5507 -63 c0 -5 -6 -10 -14 -10 -8 0 -18 5
-21 10 -3 6 3 10 14 10 12 0 21 -4 21 -10z m54 -46 c3 -8 2 -12 -4 -9 -6 3
-10 10 -10 16 0 14 7 11 14 -7z m-5549 -4 c-3 -5 -10 -10 -16 -10 -5 0 -9 5
-9 10 0 6 7 10 16 10 8 0 12 -4 9 -10z m553 -7 c-10 -2 -26 -2 -35 0 -10 3 -2
5 17 5 19 0 27 -2 18 -5z m-41 -27 c9 -9 -65 -78 -76 -71 -6 3 -11 25 -11 47
l0 41 41 -6 c22 -3 43 -8 46 -11z m5028 -26 c-3 -5 -16 -10 -28 -9 -21 0 -21
1 -2 9 28 12 37 12 30 0z m-630 -26 c6 -2 -8 -2 -29 1 -22 2 -44 9 -49 14 -9
9 49 -2 78 -15z m255 -35 c0 -8 -21 -11 -115 -14 -42 -1 -56 9 -20 15 50 8
135 8 135 -1z m78 4 c-10 -2 -26 -2 -35 0 -10 3 -2 5 17 5 19 0 27 -2 18 -5z
m-4787 -56 c-13 -13 -26 -3 -16 12 3 6 11 8 17 5 6 -4 6 -10 -1 -17z m4659
-42 c0 -20 -27 -26 -42 -7 -10 12 -10 14 0 8 7 -4 15 -1 18 8 7 18 24 12 24
-9z m-65 5 c3 -5 2 -10 -4 -10 -5 0 -13 5 -16 10 -3 6 -2 10 4 10 5 0 13 -4
16 -10z m95 -16 c0 -8 -4 -12 -10 -9 -5 3 -10 10 -10 16 0 5 5 9 10 9 6 0 10
-7 10 -16z m370 7 c-25 -15 -259 -56 -247 -44 7 7 199 48 237 51 19 1 21 -1
10 -7z m-5200 -9 c0 -10 -45 -32 -64 -32 -8 0 -19 6 -25 14 -11 12 -5 15 31
19 24 2 46 4 51 5 4 1 7 -2 7 -6z m115 -32 c-3 -5 -11 -10 -16 -10 -6 0 -7 5
-4 10 3 6 11 10 16 10 6 0 7 -4 4 -10z m-101 -29 c3 -4 0 -13 -5 -21 -8 -11
-12 -12 -16 -3 -6 16 -43 -2 -42 -20 0 -8 2 -8 5 -1 3 6 16 9 29 6 17 -3 27 1
31 12 8 20 24 21 24 1 0 -19 -30 -34 -85 -41 -30 -5 -45 -3 -45 5 0 6 4 11 9
11 6 0 6 12 1 31 -8 28 -7 31 10 26 11 -3 20 -2 20 2 0 9 58 2 64 -8z m-134
-91 c0 -5 -7 -10 -16 -10 -8 0 -12 5 -9 10 3 6 10 10 16 10 5 0 9 -4 9 -10z
m1254 -205 c5 -16 1 -21 -14 -21 -16 0 -19 6 -16 26 2 14 5 30 5 35 2 12 16
-12 25 -40z m10 -50 c-4 -8 -1 -15 5 -15 6 0 11 -8 11 -19 0 -10 7 -24 16 -31
9 -8 14 -25 12 -44 -2 -19 3 -36 12 -43 13 -11 12 -12 -6 -13 -30 0 -48 25
-48 66 0 28 -3 33 -18 28 -16 -5 -17 -2 -8 21 6 15 6 24 1 20 -6 -3 -9 3 -8
14 0 11 4 18 8 15 4 -2 10 0 14 6 9 15 15 12 9 -5z m3876 -85 c0 -5 -8 -10
-17 -10 -15 0 -16 2 -3 10 19 12 20 12 20 0z m-3879 -50 c1 -5 2 -16 3 -22 0
-7 11 -14 24 -16 20 -3 21 -6 10 -20 -7 -9 -8 -14 -4 -10 5 4 21 -1 36 -12 15
-11 30 -16 34 -13 4 4 4 0 0 -10 -8 -22 -20 -22 -33 1 -9 14 -10 14 -11 2 0
-20 20 -40 40 -40 27 0 69 -24 74 -42 2 -10 0 -18 -5 -18 -5 0 -9 -7 -9 -16 0
-11 -5 -14 -17 -9 -10 4 -34 11 -53 17 -52 13 -77 28 -77 44 0 17 33 9 55 -12
7 -8 16 -15 20 -15 40 -7 61 -6 57 2 -4 5 -13 9 -22 9 -9 0 -38 10 -64 23 -34
15 -48 28 -49 43 0 11 -6 26 -12 33 -11 11 -10 14 0 18 8 3 10 9 4 16 -14 18
-21 57 -11 57 5 0 10 -4 10 -10z m3374 -70 c3 -6 -4 -10 -17 -10 -18 0 -20 2
-8 10 19 12 18 12 25 0z m655 -141 c-25 -5 -94 -13 -155 -19 -60 -5 -172 -19
-247 -32 -76 -12 -141 -19 -144 -15 -10 10 -3 14 31 20 17 3 50 10 75 15 25 6
95 15 155 21 61 6 124 13 140 15 17 1 66 3 110 3 73 1 76 0 35 -8z m-392 -9
c-15 -4 -53 -11 -85 -14 -32 -4 -65 -9 -73 -11 -10 -3 -16 2 -17 15 -2 19 4
20 100 19 69 0 93 -3 75 -9z m-3536 -16 c35 -9 68 -21 75 -26 7 -5 17 -7 22
-4 6 4 15 -3 22 -15 9 -17 8 -23 -2 -30 -11 -7 -10 -9 3 -9 22 0 34 -20 18
-30 -8 -5 -1 -10 21 -15 41 -8 82 -33 74 -44 -2 -5 4 -11 15 -14 11 -3 20 -12
20 -21 0 -9 5 -16 10 -16 6 0 10 -7 10 -15 0 -8 -4 -15 -9 -15 -18 0 -71 52
-64 62 4 7 -2 9 -16 5 -14 -3 -31 3 -50 19 -16 13 -36 24 -45 24 -9 0 -16 5
-16 10 0 6 4 10 9 10 5 0 8 7 7 15 -2 16 -9 17 -35 7 -7 -3 -17 1 -22 9 -7 12
-9 12 -9 0 0 -17 -13 -6 -16 14 -1 10 6 13 24 11 15 -2 20 -1 12 1 -8 3 -19 9
-24 14 -6 5 -26 9 -45 8 -29 0 -32 -2 -16 -9 19 -8 19 -9 -1 -9 -19 -1 -33 18
-30 41 1 4 -8 14 -19 22 -27 21 -6 21 77 0z m3731 -61 c-7 -2 -21 -2 -30 0
-10 3 -4 5 12 5 17 0 24 -2 18 -5z m-4083 -48 c0 -8 -4 -15 -10 -15 -5 0 -10
7 -10 15 0 8 5 15 10 15 6 0 10 -7 10 -15z m1387 -7 c-3 -8 -6 -5 -6 6 -1 11
2 17 5 13 3 -3 4 -12 1 -19z m-2038 -45 c5 -10 16 -42 25 -71 l15 -53 -32 3
c-30 3 -32 6 -33 43 -2 42 5 95 11 95 3 0 8 -8 14 -17z m2061 -65 c0 -20 -15
-24 -25 -8 -3 6 -1 10 5 10 7 0 9 9 5 23 -5 17 -4 19 4 7 6 -8 11 -23 11 -32z
m-2606 -4 c20 -8 11 -24 -15 -24 -19 0 -25 11 -12 23 8 8 8 8 27 1z m2046 -22
c0 -10 9 -23 20 -30 11 -7 20 -21 20 -31 0 -11 6 -22 13 -24 6 -3 -3 -6 -20
-6 -18 -1 -33 -3 -33 -5 0 -2 -3 -11 -6 -20 -3 -9 -1 -16 6 -16 17 0 42 -28
38 -42 -3 -8 -12 -4 -25 9 -12 12 -24 19 -26 16 -7 -6 -22 87 -18 107 2 8 8
18 14 22 11 7 2 12 -16 9 -4 -1 -2 8 5 18 14 22 28 18 28 -7z m-835 9 c-6 -5
-19 -11 -30 -14 -13 -3 -9 -5 12 -6 17 0 33 2 36 7 2 4 2 1 1 -6 -6 -20 26
-26 39 -7 12 16 15 16 50 -1 20 -9 34 -21 31 -26 -3 -4 5 -8 17 -8 18 0 19 -2
9 -15 -7 -8 -19 -15 -26 -15 -11 0 -21 -19 -11 -21 40 -8 87 -9 87 -1 0 5 -9
12 -20 15 -13 3 -18 10 -14 21 5 14 8 14 27 1 25 -18 41 -20 31 -4 -5 9 3 10
28 5 28 -5 37 -3 42 10 4 10 2 21 -5 24 -7 5 2 14 22 24 31 16 35 16 59 -2 14
-10 39 -22 55 -27 17 -5 33 -9 38 -10 4 -2 12 -3 17 -4 6 0 9 -6 8 -11 -2 -6
8 -16 22 -23 14 -7 25 -19 25 -27 0 -8 5 -15 10 -15 13 0 85 -73 85 -86 0 -5
-15 1 -32 14 -28 20 -58 36 -78 42 -3 0 -21 9 -40 19 -19 10 -51 19 -72 19
-21 0 -38 3 -38 6 0 10 -105 2 -108 -9 -2 -6 -8 -8 -12 -5 -5 3 -26 -1 -46
-10 -44 -18 -84 -20 -85 -2 0 9 -2 9 -6 -1 -2 -6 -9 -10 -14 -6 -5 3 -9 0 -9
-5 0 -6 4 -11 9 -11 19 0 -15 -50 -34 -51 -17 -1 -17 -2 -2 -6 9 -2 17 -9 17
-14 0 -5 -8 -10 -17 -10 -10 -1 -4 -5 12 -8 17 -4 42 -6 56 -5 24 2 26 0 27
-46 1 -61 59 -239 85 -262 22 -20 31 -23 22 -8 -3 6 -1 10 5 10 6 0 8 6 4 13
-4 6 15 -8 42 -33 81 -73 144 -112 144 -90 0 13 34 7 54 -9 9 -8 19 -11 22 -8
3 3 14 -3 25 -14 25 -25 51 -15 43 17 -6 23 6 31 40 25 4 -1 13 2 20 7 9 8 37
17 76 27 60 14 62 16 55 43 -5 24 -3 23 20 -11 30 -43 41 -44 25 -3 -6 18 -6
25 0 21 6 -3 10 -13 10 -21 0 -8 7 -14 15 -14 11 0 13 4 6 18 -5 9 -18 37 -29
62 -11 25 -43 79 -71 120 -31 46 -47 76 -39 79 6 2 22 -9 36 -25 13 -16 32
-39 43 -51 10 -13 25 -20 33 -17 11 4 16 -11 25 -68 6 -40 16 -91 22 -113 5
-22 11 -62 13 -90 5 -86 18 -175 26 -175 12 0 38 213 31 249 -1 7 2 10 7 7 17
-10 22 86 10 202 -9 90 -9 117 0 120 7 2 10 8 6 13 -3 5 2 9 12 9 11 0 15 -6
11 -20 -3 -11 -1 -20 4 -20 9 0 11 6 13 39 1 8 7 16 14 19 11 3 14 -4 11 -24
0 -4 5 -10 12 -15 11 -6 10 -9 -4 -15 -9 -3 -17 -14 -17 -23 1 -14 2 -14 11 1
8 15 13 16 29 6 14 -9 16 -16 9 -24 -19 -23 29 -88 56 -78 12 5 14 -2 9 -40
-5 -31 -3 -46 4 -46 6 0 9 -6 6 -14 -4 -11 0 -13 15 -9 18 5 21 1 21 -23 -1
-47 3 -64 13 -64 5 0 7 -7 3 -15 -3 -8 -1 -15 5 -15 7 0 9 -10 5 -26 -5 -19
-4 -24 6 -18 7 4 5 -2 -5 -13 -17 -20 -17 -21 8 -37 14 -9 25 -25 25 -36 0
-15 7 -20 29 -20 24 0 28 3 24 20 -3 12 0 20 7 20 9 0 11 10 6 32 -5 24 -1 37
15 54 17 18 21 35 21 98 1 57 5 76 15 76 7 0 13 7 13 15 0 8 -4 15 -10 15 -5
0 -10 13 -10 28 0 15 -6 34 -12 41 -10 11 -10 12 -1 7 7 -4 22 -2 33 4 16 9
22 8 26 -5 3 -8 11 -12 16 -8 11 6 5 -45 -12 -102 -11 -36 -36 -159 -55 -275
-19 -111 -22 -125 -44 -190 -10 -30 -16 -59 -14 -64 8 -12 23 15 23 42 0 26
15 29 24 6 7 -18 -13 -85 -29 -96 -7 -5 -6 -13 1 -25 7 -11 8 -27 3 -41 -5
-12 -4 -22 1 -22 5 0 7 -9 5 -20 -2 -11 2 -23 10 -27 13 -8 20 -58 17 -119 -2
-27 -9 -34 -54 -57 -29 -14 -64 -37 -77 -51 -13 -14 -39 -30 -57 -36 -19 -7
-34 -16 -34 -21 0 -5 -9 -9 -20 -9 -11 0 -20 -4 -20 -10 0 -15 -73 -12 -113 5
-45 19 -87 62 -149 152 -28 40 -55 70 -60 67 -6 -4 -7 2 -3 15 4 12 2 21 -4
21 -6 0 -10 3 -10 8 1 4 0 12 -1 17 -1 6 -3 25 -4 44 -1 39 -25 56 -27 19 -3
-54 1 -85 15 -106 5 -8 10 -37 12 -65 2 -29 8 -53 14 -55 5 -2 10 -12 10 -22
0 -10 3 -20 8 -22 4 -2 16 -20 26 -41 14 -27 16 -41 9 -48 -7 -7 -10 -17 -9
-23 2 -6 1 -8 -1 -3 -3 4 -12 7 -20 7 -13 0 -13 3 -3 15 7 8 11 15 9 16 -89
20 -133 16 -169 -14 -31 -27 -70 -36 -70 -17 0 6 9 10 21 10 15 0 19 5 15 15
-4 11 2 15 24 15 16 0 31 4 34 9 7 10 -52 26 -61 17 -3 -3 -14 -1 -24 5 -14 7
-23 5 -37 -9 -10 -10 -27 -22 -38 -27 -17 -7 -17 -8 6 -14 18 -5 26 -3 29 8 2
8 9 21 17 29 12 11 14 10 14 -7 0 -19 -35 -61 -51 -61 -38 0 -53 46 -24 70 8
7 15 17 15 22 0 6 -6 6 -14 -1 -8 -7 -17 -8 -20 -3 -3 5 -15 8 -28 7 -18 -2
-23 -8 -23 -28 1 -19 -4 -27 -17 -27 -23 0 -24 36 -2 44 19 7 12 19 -14 22 -9
2 -26 -8 -38 -21 -15 -18 -29 -23 -57 -22 -34 2 -64 27 -33 27 9 0 12 7 9 20
-3 11 -10 20 -15 20 -6 0 -8 -7 -4 -15 7 -19 1 -19 -35 2 -21 13 -29 24 -25
36 2 11 2 16 -1 13 -9 -8 -53 34 -53 50 0 7 -9 16 -20 19 -21 7 -28 25 -10 25
6 0 10 4 10 10 0 5 -6 7 -14 4 -13 -5 -42 42 -51 84 -11 46 -33 116 -34 107
-1 -5 -10 10 -21 34 -11 23 -17 47 -14 52 3 5 -2 12 -11 15 -9 4 -14 12 -11
20 3 7 1 14 -3 16 -12 4 -90 159 -94 185 -2 13 -6 26 -10 29 -17 17 -5 25 13
9 11 -10 20 -22 20 -28 0 -19 61 -85 90 -97 16 -7 28 -16 25 -20 -3 -4 4 -10
15 -13 18 -5 19 -3 5 24 -9 16 -15 30 -15 31 3 7 -49 143 -79 208 -11 25 -21
57 -21 71 0 14 -7 39 -15 56 -8 16 -13 40 -10 53 2 13 1 28 -4 34 -5 6 -11 22
-13 36 -3 14 -9 33 -13 43 -13 31 20 19 57 -20 45 -47 64 -63 78 -63 12 0 4
42 -16 81 -15 30 -10 41 14 32 10 -4 13 -2 8 5 -7 12 2 15 39 13 17 -1 17 1
-4 9 -14 6 -21 16 -17 25 3 8 1 17 -5 20 -5 4 -12 -1 -16 -10 -3 -10 0 -21 8
-26 11 -7 9 -9 -8 -9 -16 0 -20 4 -16 20 4 14 1 20 -7 18 -16 -4 -51 57 -44
77 3 8 11 12 16 9 7 -4 7 0 0 12 -5 11 -8 39 -6 64 2 25 3 57 3 73 1 24 5 27
33 27 19 0 28 -4 23 -9z m271 -27 c18 -15 18 -15 -6 -10 -14 3 -31 6 -37 6 -7
0 -13 5 -13 10 0 15 34 12 56 -6z m-896 -84 c0 -5 -8 -14 -18 -19 -14 -7 -21
-5 -30 10 -11 17 -9 19 18 19 16 0 30 -4 30 -10z m4170 -31 c-19 -5 -93 -12
-165 -15 -144 -7 -178 -14 -67 -14 57 0 72 -3 72 -15 0 -19 7 -19 27 1 9 8 22
13 30 10 8 -3 21 -6 29 -6 8 0 14 -10 14 -25 0 -14 7 -28 15 -31 38 -15 7 -24
-83 -24 -88 0 -98 2 -110 21 -7 11 -19 18 -27 15 -8 -3 -17 -1 -20 4 -4 6 -1
10 5 10 6 0 8 5 5 10 -4 6 -15 8 -25 5 -15 -5 -17 -2 -13 16 5 18 3 21 -10 16
-10 -4 -16 -2 -14 6 2 11 98 19 302 24 59 1 64 0 35 -8z m-2889 -18 c15 -13
20 -23 14 -28 -6 -6 -21 2 -37 19 -31 32 -13 39 23 9z m293 3 c4 -9 5 -19 3
-21 -8 -8 -37 10 -37 23 0 19 26 18 34 -2z m2056 6 c0 -5 -4 -10 -10 -10 -5 0
-10 5 -10 10 0 6 5 10 10 10 6 0 10 -4 10 -10z m-3640 -41 c0 -16 -5 -29 -11
-29 -5 0 -7 5 -3 11 3 6 1 15 -6 19 -7 4 -10 15 -7 25 10 24 27 8 27 -26z m83
-7 c3 -15 1 -28 -4 -30 -5 -2 -9 -8 -9 -13 0 -6 5 -7 10 -4 6 3 10 1 10 -5 0
-7 -6 -10 -12 -7 -7 2 -13 12 -13 23 0 10 -6 29 -12 40 -7 12 -10 24 -7 27 12
12 32 -5 37 -31z m1965 5 c-5 -32 -25 -31 -25 2 0 21 4 28 14 24 8 -3 13 -15
11 -26z m-2228 -9 c0 -4 -15 -5 -32 -1 -47 8 -49 14 -5 11 20 -1 37 -6 37 -10z
m1790 -6 c0 -12 -3 -12 -15 -2 -8 7 -15 13 -15 15 0 1 7 2 15 2 8 0 15 -7 15
-15z m2557 2 c2 -6 -3 -11 -12 -11 -8 0 -15 7 -15 15 0 15 22 12 27 -4z
m-3164 -22 c3 -4 1 -30 -4 -57 -4 -28 -11 -76 -15 -109 -3 -32 -9 -54 -13 -50
-12 14 -41 139 -41 178 0 19 6 37 13 39 19 8 55 8 60 -1z m-993 -6 c0 -3 -4
-8 -10 -11 -5 -3 -10 -1 -10 4 0 6 5 11 10 11 6 0 10 -2 10 -4z m4180 -6 c0
-5 -2 -10 -4 -10 -3 0 -8 5 -11 10 -3 6 -1 10 4 10 6 0 11 -4 11 -10z m-4576
-8 c3 -5 -1 -9 -9 -9 -8 0 -15 4 -15 9 0 4 4 8 9 8 6 0 12 -4 15 -8z m1245
-66 l-1 -31 -10 30 c-6 17 -15 35 -19 41 -5 6 -6 14 -2 18 12 12 33 -26 32
-58z m-1244 35 c7 -12 -22 -41 -42 -41 -13 0 -13 3 -3 15 7 8 16 12 21 9 5 -3
9 2 9 10 0 18 6 21 15 7z m2435 -1 c0 -5 -4 -10 -10 -10 -5 0 -10 5 -10 10 0
6 5 10 10 10 6 0 10 -4 10 -10z m-609 -22 c19 -22 19 -35 0 -23 -14 8 -34 45
-25 45 4 0 15 -10 25 -22z m-1736 2 c3 -6 -1 -7 -9 -4 -18 7 -21 14 -7 14 6 0
13 -4 16 -10z m4552 -34 c23 -17 42 -39 43 -48 0 -16 -12 -18 -110 -18 -67 0
-110 4 -110 10 0 6 -14 10 -31 10 -20 0 -28 4 -23 12 4 7 3 8 -5 4 -12 -8 -28
6 -48 42 -13 21 -12 21 90 24 129 4 143 1 194 -36z m-4602 24 c-3 -5 -10 -10
-16 -10 -5 0 -9 5 -9 10 0 6 7 10 16 10 8 0 12 -4 9 -10z m865 -6 c0 -2 -7 -4
-15 -4 -8 0 -15 4 -15 10 0 5 7 7 15 4 8 -4 15 -8 15 -10z m1557 -1 c5 3 9 -3
9 -13 0 -10 -4 -16 -8 -14 -4 3 -8 1 -8 -5 0 -5 -8 -8 -17 -6 -10 2 -21 4 -25
4 -10 1 3 34 16 43 6 4 13 2 17 -4 4 -6 11 -8 16 -5z m1869 -25 c16 -30 16
-32 1 -19 -10 7 -17 20 -17 28 0 9 -6 13 -15 9 -8 -3 -15 -1 -15 4 0 23 31 8
46 -22z m-4238 10 c-2 -6 8 -17 22 -25 24 -12 24 -13 -17 -13 -40 0 -41 0 -30
25 12 25 29 35 25 13z m-348 -7 c0 -5 -7 -11 -15 -15 -15 -5 -20 5 -8 17 9 10
23 9 23 -2z m248 -3 c18 -18 15 -38 -6 -38 -25 0 -31 7 -25 31 6 22 14 24 31
7z m4751 -32 c8 -9 17 -16 22 -16 5 0 48 -25 96 -56 70 -45 84 -58 71 -65 -24
-13 -126 54 -222 145 -38 36 -39 37 -10 23 17 -9 36 -23 43 -31z m-5089 24 c0
-5 -2 -10 -4 -10 -3 0 -8 5 -11 10 -3 6 -1 10 4 10 6 0 11 -4 11 -10z m526
-12 c-9 -5 -22 -7 -29 -4 -7 2 -4 5 6 5 9 1 17 6 17 12 0 5 5 7 11 3 8 -5 6
-10 -5 -16z m4064 2 c0 -5 -4 -10 -10 -10 -5 0 -10 5 -10 10 0 6 5 10 10 10 6
0 10 -4 10 -10z m-71 -16 c13 -12 -8 -10 -29 2 l-25 15 25 -7 c14 -3 27 -8 29
-10z m-4439 2 c0 -3 -4 -8 -10 -11 -5 -3 -10 -1 -10 4 0 6 5 11 10 11 6 0 10
-2 10 -4z m243 -20 c9 0 17 -8 17 -17 0 -13 -7 -15 -45 -9 -31 5 -48 3 -55 -6
-8 -8 -7 -13 2 -17 7 -2 10 -7 7 -11 -4 -4 -14 0 -22 9 -9 8 -22 15 -29 15
-10 0 -10 -2 1 -9 9 -6 10 -11 2 -15 -15 -10 -32 2 -29 19 3 14 1 15 -28 15
-11 0 -14 -6 -9 -20 7 -22 -10 -28 -19 -7 -5 10 -7 10 -12 0 -3 -7 -10 -13
-16 -13 -7 0 -6 5 1 14 9 11 9 15 -1 19 -7 3 -2 5 12 4 15 -1 24 3 23 10 -2 7
9 15 25 19 15 3 32 7 37 10 6 2 35 0 65 -3 30 -3 63 -6 73 -7z m4707 -36 c0
-5 -7 -10 -16 -10 -8 0 -12 5 -9 10 3 6 10 10 16 10 5 0 9 -4 9 -10z m-4716
-16 c3 -8 2 -12 -4 -9 -6 3 -10 10 -10 16 0 14 7 11 14 -7z m4351 5 c10 -14 1
-21 -19 -13 -9 3 -13 10 -10 15 7 12 21 11 29 -2z m270 -4 c97 -7 106 -10 99
-28 -3 -8 -42 -13 -133 -14 -129 -2 -129 -2 -133 22 -5 25 14 35 57 29 11 -2
60 -6 110 -9z m-4925 -10 c0 -8 -4 -15 -9 -15 -13 0 -22 16 -14 24 11 11 23 6
23 -9z m45 1 c10 -9 11 -16 3 -24 -13 -13 -43 12 -33 28 8 13 14 13 30 -4z
m1750 -70 c56 -26 118 -29 181 -10 33 10 66 26 75 36 23 26 35 23 58 -16 31
-50 27 -61 -31 -85 -29 -12 -63 -27 -75 -33 -33 -16 -71 -14 -148 10 -75 23
-96 34 -97 48 -1 10 -29 56 -39 64 -3 3 -8 15 -12 28 l-5 23 31 -26 c18 -14
46 -32 62 -39z m-1475 44 c0 -5 -2 -10 -4 -10 -3 0 -8 5 -11 10 -3 6 -1 10 4
10 6 0 11 -4 11 -10z m100 -12 c0 -4 -4 -8 -9 -8 -6 0 -12 4 -15 8 -3 5 1 9 9
9 8 0 15 -4 15 -9z m1206 -11 c3 -23 -3 -21 -17 4 -8 17 -8 20 2 17 7 -2 13
-12 15 -21z m3397 -8 c-8 -8 -27 -8 -64 -1 l-54 10 65 1 c46 1 61 -2 53 -10z
m-4943 -3 c0 -3 -4 -8 -10 -11 -5 -3 -10 -1 -10 4 0 6 5 11 10 11 6 0 10 -2
10 -4z m4450 -22 c0 -2 -17 -4 -37 -3 -33 1 -35 2 -13 8 23 7 50 4 50 -5z
m920 -10 c0 -8 -6 -14 -13 -14 -19 0 -27 10 -20 25 6 17 33 8 33 -11z m38 -10
c-5 -28 -28 -29 -28 -1 0 13 3 27 7 31 10 10 25 -10 21 -30z m-87 -11 c26 -20
46 -40 43 -44 -5 -9 -124 61 -124 73 0 18 36 5 81 -29z m-831 21 c0 -8 -19
-13 -24 -6 -3 5 1 9 9 9 8 0 15 -2 15 -3z m361 -10 c11 -13 7 -15 -36 -12 -27
2 -50 8 -53 16 -6 18 72 16 89 -4z m-396 -25 c75 -12 105 -24 105 -40 0 -6 -5
-7 -11 -4 -5 4 -20 8 -32 10 -12 1 -42 8 -67 14 -25 7 -49 13 -55 14 -5 2 -19
8 -30 15 l-20 13 20 -5 c11 -3 52 -10 90 -17z m-4015 -24 c0 -8 10 -15 22 -17
25 -3 37 -28 14 -28 -32 0 -63 22 -63 45 0 16 4 22 13 18 8 -3 14 -11 14 -18z
m4491 15 c10 -6 19 -15 19 -20 0 -16 -74 -11 -96 6 -18 15 -18 15 5 8 16 -4
21 -3 17 5 -9 14 29 15 55 1z m-4951 -30 c26 -26 27 -52 1 -42 -11 4 -21 12
-21 17 -1 6 -6 18 -11 28 -13 24 6 22 31 -3z m350 4 c0 -8 5 -12 10 -9 15 9
12 -4 -4 -21 -20 -19 -40 -18 -32 2 3 9 6 22 6 30 0 8 5 14 10 14 6 0 10 -7
10 -16z m3820 -21 c0 -23 -23 -9 -27 16 -3 20 -1 22 12 11 8 -7 15 -19 15 -27z
m230 27 c8 -5 12 -11 9 -14 -3 -3 -14 1 -25 9 -21 16 -8 20 16 5z m-4292 -20
c14 0 14 -2 3 -9 -8 -5 -21 -7 -30 -4 -12 3 -11 0 3 -11 11 -9 17 -18 14 -21
-8 -9 -38 24 -38 42 0 10 6 13 16 9 9 -3 23 -6 32 -6z m4908 -7 c7 -10 14 -29
14 -43 0 -21 -2 -22 -14 -10 -15 16 -30 70 -20 70 4 0 13 -8 20 -17z m-745
-22 c14 -11 20 -23 15 -28 -5 -4 -11 -2 -13 5 -3 6 -9 10 -14 6 -13 -8 -49 5
-49 18 0 5 7 7 16 4 8 -3 12 -2 9 4 -10 17 11 11 36 -9z m242 -6 c34 -4 69
-11 78 -16 9 -4 19 -6 22 -3 8 8 47 -15 47 -28 0 -11 -13 -10 -140 12 -36 6
-77 12 -92 12 -18 1 -26 6 -25 18 1 11 8 16 24 14 13 -1 51 -5 86 -9z m477 1
c0 -3 -4 -8 -10 -11 -5 -3 -10 -1 -10 4 0 6 5 11 10 11 6 0 10 -2 10 -4z
m-4824 -53 c1 -6 -5 -9 -13 -6 -7 3 -13 13 -13 22 -1 14 -2 14 -11 -1 -12 -22
-29 -23 -29 -2 0 8 5 12 10 9 6 -3 13 0 16 9 5 12 8 12 23 -2 9 -9 17 -22 17
-29z m244 37 c0 -5 -4 -10 -10 -10 -5 0 -10 5 -10 10 0 6 5 10 10 10 6 0 10
-4 10 -10z m1490 0 c0 -5 -5 -10 -11 -10 -5 0 -7 5 -4 10 3 6 8 10 11 10 2 0
4 -4 4 -10z m3220 -10 c0 -11 -4 -20 -10 -20 -5 0 -10 9 -10 20 0 11 5 20 10
20 6 0 10 -9 10 -20z m-5150 -3 c0 -8 -9 -13 -22 -11 -34 4 -35 5 -8 14 14 4
26 8 28 9 1 1 2 -5 2 -12z m5208 -4 c20 -9 39 -17 42 -18 3 -1 22 -9 44 -18
21 -9 42 -17 47 -17 5 0 9 -5 9 -12 0 -6 -3 -8 -7 -5 -3 4 -13 1 -21 -6 -11
-8 -14 -8 -9 0 10 16 -3 22 -62 27 -29 3 -58 9 -65 15 -7 6 -16 8 -19 4 -4 -3
-7 6 -7 20 0 32 0 32 48 10z m-1031 -10 c3 -7 -4 -9 -16 -6 -12 3 -18 9 -15
15 7 11 26 6 31 -9z m-3907 -5 c0 -5 -12 -5 -27 -2 -40 10 -42 15 -5 12 18 -1
32 -6 32 -10z m4014 4 c2 -4 -6 -12 -19 -18 -22 -11 -23 -10 -12 7 13 20 23
24 31 11z m446 -7 c0 -2 -7 -5 -15 -9 -9 -3 -15 0 -15 9 0 9 6 12 15 9 8 -4
15 -7 15 -9z m-4360 -16 c0 -6 -4 -7 -10 -4 -5 3 -10 11 -10 16 0 6 5 7 10 4
6 -3 10 -11 10 -16z m160 12 c0 -5 -7 -11 -15 -15 -15 -5 -20 5 -8 17 9 10 23
9 23 -2z m-460 -16 c7 -9 8 -15 2 -15 -5 0 -12 7 -16 15 -3 8 -4 15 -2 15 2 0
9 -7 16 -15z m60 1 c0 -3 -4 -8 -10 -11 -5 -3 -10 -1 -10 4 0 6 5 11 10 11 6
0 10 -2 10 -4z m4200 -13 c19 -1 44 -4 55 -7 11 -2 23 -5 28 -5 4 -1 7 -7 7
-15 0 -12 -6 -13 -32 -4 -18 5 -42 10 -53 9 -11 -1 -35 1 -52 4 -27 5 -31 8
-20 19 6 8 16 11 22 8 5 -4 26 -7 45 -9z m-4399 -16 c-10 -9 -11 -8 -5 6 3 10
9 15 12 12 3 -3 0 -11 -7 -18z m5002 1 c31 -15 36 -28 7 -21 -11 3 -20 9 -20
13 0 5 -8 11 -17 13 -10 3 -13 5 -7 6 5 0 22 -5 37 -11z m347 -8 c0 -5 -2 -10
-4 -10 -3 0 -8 5 -11 10 -3 6 -1 10 4 10 6 0 11 -4 11 -10z m-2514 -34 c-4
-18 -15 -51 -26 -72 -18 -36 -19 -37 -20 -13 0 41 31 117 49 119 2 0 0 -15 -3
-34z m1718 25 c3 -5 -1 -11 -9 -15 -9 -3 -15 0 -15 9 0 16 16 20 24 6z m-4331
-15 c2 3 28 -2 56 -12 28 -9 60 -14 71 -11 11 3 18 1 14 -4 -3 -5 4 -9 15 -9
12 0 21 -4 21 -9 0 -5 -22 -8 -50 -7 -27 0 -50 5 -50 9 0 4 -15 7 -32 6 -51
-3 -204 27 -163 31 11 1 30 1 42 1 11 -1 24 3 28 8 4 8 12 8 24 1 10 -5 21 -7
24 -4z m4407 4 c12 -8 9 -10 -12 -10 -15 0 -30 5 -33 10 -8 13 25 13 45 0z
m991 1 c22 -9 22 -10 4 -10 -12 -1 -26 -6 -32 -12 -8 -8 -17 -7 -32 3 -11 7
-21 15 -21 18 0 10 57 10 81 1z m-1000 -38 c6 -6 -19 -6 -63 -1 -93 11 -102
20 -14 14 37 -2 72 -8 77 -13z m-4051 -3 c0 -5 -4 -10 -10 -10 -5 0 -10 5 -10
10 0 6 5 10 10 10 6 0 10 -4 10 -10z m4097 -6 c-3 -3 -12 -4 -19 -1 -8 3 -5 6
6 6 11 1 17 -2 13 -5z m-172 -34 c3 -5 1 -10 -5 -10 -6 0 -8 -4 -5 -10 3 -5
17 -10 31 -10 13 0 24 -5 24 -11 0 -6 -9 -9 -20 -6 -11 3 -20 1 -20 -3 0 -5
-14 -4 -30 2 -17 5 -39 8 -50 5 -11 -3 -23 -1 -26 4 -4 8 24 13 64 12 16 -1
15 2 -4 21 -14 15 -13 16 10 16 14 0 28 -4 31 -10z m540 0 c4 -6 -5 -9 -19 -8
-15 1 -26 6 -26 10 0 12 38 10 45 -2z m-657 -17 c-10 -2 -28 -2 -40 0 -13 2
-5 4 17 4 22 1 32 -1 23 -4z m-4088 -7 c0 -3 -4 -8 -10 -11 -5 -3 -10 -1 -10
4 0 6 5 11 10 11 6 0 10 -2 10 -4z m-150 -26 c11 -8 -1 -9 -40 -5 -30 3 -56 8
-59 11 -9 9 85 3 99 -6z m530 6 c0 -11 -19 -15 -25 -6 -3 5 1 10 9 10 9 0 16
-2 16 -4z m3923 -3 c-7 -2 -21 -2 -30 0 -10 3 -4 5 12 5 17 0 24 -2 18 -5z
m433 -15 c20 -12 44 -22 53 -23 24 -3 75 -25 69 -30 -2 -3 -18 -1 -34 4 -17 5
-47 7 -67 5 -22 -2 -35 1 -32 6 4 6 -9 10 -29 10 -42 0 -89 17 -82 29 3 4 25
5 48 1 46 -9 61 -5 38 10 -31 20 0 9 36 -12z m-235 -5 c12 -16 12 -17 -1 -6
-8 6 -26 13 -40 16 l-25 4 26 2 c15 0 33 -7 40 -16z m549 2 c19 -4 46 -9 60
-12 l25 -5 -23 -9 c-13 -5 -51 -10 -84 -10 -37 -1 -55 -5 -46 -10 10 -7 9 -9
-4 -9 -9 0 -20 5 -23 11 -4 6 -14 8 -22 5 -9 -4 -11 -2 -7 6 5 7 -1 9 -19 4
-38 -9 -40 16 -3 31 29 12 61 11 146 -2z m-5046 -57 c-11 -17 -74 -5 -74 14 0
6 7 8 15 5 8 -4 17 -2 20 3 4 6 14 5 25 -2 10 -7 16 -16 14 -20z m-84 12 c0
-13 -30 -13 -50 0 -11 7 -7 10 18 10 17 0 32 -4 32 -10z m150 -10 c0 -5 -4
-10 -10 -10 -5 0 -10 5 -10 10 0 6 5 10 10 10 6 0 10 -4 10 -10z m4325 0 c-3
-5 -10 -10 -16 -10 -5 0 -9 5 -9 10 0 6 7 10 16 10 8 0 12 -4 9 -10z m923 -23
c20 -15 14 -27 -13 -27 -15 0 -24 -5 -22 -12 1 -8 -8 -13 -20 -12 -117 3 -132
9 -54 18 77 9 54 20 -41 19 -24 0 -23 13 2 20 11 3 20 0 20 -6 0 -7 4 -6 9 2
5 8 17 16 26 17 9 1 19 5 22 8 5 5 50 -12 71 -27z m-5192 -9 c4 -7 4 -10 -1
-6 -4 4 -14 3 -22 -3 -10 -9 -13 -8 -13 5 0 19 26 22 36 4z m4204 -9 c0 -8
-42 -20 -49 -13 -7 7 16 21 34 21 8 0 15 -4 15 -8z m490 1 c0 -5 -2 -10 -4
-10 -3 0 -8 5 -11 10 -3 6 -1 10 4 10 6 0 11 -4 11 -10z m-4692 -40 c12 0 22
-4 22 -9 0 -11 -73 -3 -85 11 -7 8 -3 9 15 4 14 -3 35 -6 48 -6z m5007 -30 c3
-5 1 -10 -4 -10 -6 0 -11 5 -11 10 0 6 2 10 4 10 3 0 8 -4 11 -10z m135 6 c0
-3 -4 -8 -10 -11 -5 -3 -10 -1 -10 4 0 6 5 11 10 11 6 0 10 -2 10 -4z m71 -29
c-5 -5 -7 -15 -5 -22 3 -6 -2 -12 -11 -12 -21 0 -32 46 -14 58 17 10 44 -10
30 -24z m-5581 -7 c0 -5 -6 -10 -14 -10 -8 0 -18 5 -21 10 -3 6 3 10 14 10 12
0 21 -4 21 -10z m105 -15 c39 -4 81 -8 95 -9 48 -5 51 -6 46 -14 -5 -9 -20 -9
-76 1 -56 11 -93 15 -128 16 -20 1 -31 5 -27 11 4 6 10 8 14 6 4 -3 38 -8 76
-11z m195 -25 c0 -5 -4 -10 -9 -10 -6 0 -13 5 -16 10 -3 6 1 10 9 10 9 0 16
-4 16 -10z m63 -7 c-7 -2 -19 -2 -25 0 -7 3 -2 5 12 5 14 0 19 -2 13 -5z m47
-3 c0 -5 -4 -10 -10 -10 -5 0 -10 5 -10 10 0 6 5 10 10 10 6 0 10 -4 10 -10z
m-245 -30 c-3 -5 -16 -10 -28 -9 -21 0 -21 1 -2 9 28 12 37 12 30 0z m40 0 c3
-5 1 -10 -4 -10 -6 0 -11 5 -11 10 0 6 2 10 4 10 3 0 8 -4 11 -10z m75 -10 c0
-12 7 -20 17 -20 9 0 13 -3 9 -7 -13 -13 -31 -9 -38 7 -10 23 -9 40 2 40 6 0
10 -9 10 -20z m85 0 c3 -5 1 -10 -4 -10 -6 0 -11 5 -11 10 0 6 2 10 4 10 3 0
8 -4 11 -10z m121 -27 c-11 -11 -19 6 -11 24 8 17 8 17 12 0 3 -10 2 -21 -1
-24z m-441 7 c9 -8 58 -17 103 -19 7 -1 11 -5 8 -10 -8 -12 -110 -13 -141 -1
-13 5 -33 18 -44 29 l-21 21 42 -5 c23 -3 47 -10 53 -15z m4402 3 c-17 -18
-77 -29 -77 -14 0 6 11 11 25 11 14 0 25 4 25 8 0 4 9 8 20 8 16 0 18 -3 7
-13z m-100 -40 c-9 -9 -19 -14 -23 -11 -10 10 6 28 24 28 15 0 15 -1 -1 -17z
m-4351 -28 c16 -12 16 -14 3 -15 -9 0 -22 7 -29 15 -16 19 0 19 26 0z m174 -7
c0 -6 -7 -7 -16 -4 -9 4 -22 2 -28 -4 -8 -6 -26 -6 -52 2 -34 10 -36 12 -16
17 34 9 112 1 112 -11z m120 6 c0 -2 -14 -4 -31 -4 -16 0 -28 4 -25 9 5 8 56
3 56 -5z m155 -17 c7 -6 -13 -7 -60 -3 -38 4 -74 12 -80 17 -7 7 13 8 60 3 39
-3 75 -11 80 -17z m-200 -7 c-3 -5 -10 -10 -16 -10 -5 0 -9 5 -9 10 0 6 7 10
16 10 8 0 12 -4 9 -10z m1909 -42 c10 -39 6 -44 -14 -18 -23 30 -25 40 -6 40
7 0 16 -10 20 -22z m-1993 2 c5 0 9 -4 9 -10 0 -5 -7 -10 -16 -10 -9 0 -13 -5
-9 -12 4 -7 -1 -4 -9 6 -20 25 -20 40 0 32 9 -3 20 -6 25 -6z m92 -35 c-3 -9
-8 -14 -10 -11 -3 3 -2 9 2 15 9 16 15 13 8 -4z m292 -5 c3 -6 -1 -7 -9 -4
-18 7 -21 14 -7 14 6 0 13 -4 16 -10z m-238 -6 c-3 -3 -12 -4 -19 -1 -8 3 -5
6 6 6 11 1 17 -2 13 -5z m68 -14 c3 -5 1 -10 -4 -10 -6 0 -11 5 -11 10 0 6 2
10 4 10 3 0 8 -4 11 -10z m55 -10 c-19 -13 -30 -13 -30 0 0 6 10 10 23 10 18
0 19 -2 7 -10z m1754 1 c4 -5 -3 -7 -14 -4 -23 6 -26 13 -6 13 8 0 17 -4 20
-9z m-1612 -22 c9 -5 26 -9 37 -9 12 0 21 -5 21 -11 0 -15 -91 -7 -109 9 -11
11 -17 9 -36 -8 -15 -14 -25 -18 -30 -11 -3 6 -2 11 3 11 6 0 8 8 5 19 -4 16
0 18 44 13 26 -2 56 -8 65 -13z m246 -4 c-3 -3 -9 2 -12 12 -6 14 -5 15 5 6 7
-7 10 -15 7 -18z m-65 -2 c-7 -2 -19 -2 -25 0 -7 3 -2 5 12 5 14 0 19 -2 13
-5z m-363 -15 c0 -4 -16 -8 -35 -8 -19 0 -35 4 -35 9 0 5 16 9 35 8 19 -1 35
-5 35 -9z m530 2 c0 -5 -4 -10 -10 -10 -5 0 -10 5 -10 10 0 6 5 10 10 10 6 0
10 -4 10 -10z m-175 -19 c-3 -6 -11 -11 -17 -11 -6 0 -6 6 2 15 14 17 26 13
15 -4z m-678 -21 c1 -11 -2 -20 -8 -20 -5 0 -9 2 -9 4 0 2 -3 11 -6 20 -4 10
-1 16 8 16 7 0 14 -9 15 -20z m3343 0 c0 -5 -10 -10 -22 -9 -22 0 -22 1 -3 9
11 5 21 9 23 9 1 1 2 -3 2 -9z m-1280 -54 c0 -9 -9 -12 -25 -8 -29 5 -33 19
-7 25 22 5 32 -1 32 -17z m1218 17 c-10 -2 -18 -9 -18 -14 0 -5 -21 -9 -46 -9
-28 0 -43 4 -39 10 3 6 17 7 30 4 13 -3 32 -1 42 5 10 6 25 10 33 10 11 -1 10
-3 -2 -6z m-1293 -13 c3 -5 1 -10 -4 -10 -6 0 -11 5 -11 10 0 6 2 10 4 10 3 0
8 -4 11 -10z m1352 -12 c-3 -8 -6 -5 -6 6 -1 11 2 17 5 13 3 -3 4 -12 1 -19z
m-2567 -4 c0 -2 -7 -4 -15 -4 -8 0 -15 4 -15 10 0 5 7 7 15 4 8 -4 15 -8 15
-10z m210 1 c0 -9 -6 -12 -16 -8 -13 5 -13 7 -2 14 17 11 18 11 18 -6z m850
-77 c0 -5 -7 -8 -15 -5 -8 4 -17 2 -20 -3 -9 -15 -35 -12 -35 4 0 8 12 16 28
18 32 4 42 1 42 -14z m967 6 c-3 -3 -12 -4 -19 -1 -8 3 -5 6 6 6 11 1 17 -2
13 -5z m-1054 -11 c-7 -2 -19 -2 -25 0 -7 3 -2 5 12 5 14 0 19 -2 13 -5z m907
-17 c0 -3 -4 -8 -10 -11 -5 -3 -10 -1 -10 4 0 6 5 11 10 11 6 0 10 -2 10 -4z"/>
<path d="M1388 2122 c-4 -27 -1 -29 29 -30 18 -1 35 3 38 8 4 6 -8 10 -26 10
-26 0 -31 3 -26 20 3 11 2 20 -3 20 -4 0 -10 -13 -12 -28z"/>
<path d="M1740 2140 c0 -6 7 -10 15 -10 8 0 15 2 15 4 0 2 -7 6 -15 10 -8 3
-15 1 -15 -4z"/>
<path d="M1465 2130 c-3 -5 1 -10 10 -10 9 0 13 5 10 10 -3 6 -8 10 -10 10 -2
0 -7 -4 -10 -10z"/>
<path d="M1750 2100 c6 -11 15 -20 19 -20 5 0 11 9 14 20 4 16 0 20 -19 20
-22 0 -23 -3 -14 -20z"/>
<path d="M1390 2040 c0 -5 9 -10 20 -10 11 0 20 5 20 10 0 6 -9 10 -20 10 -11
0 -20 -4 -20 -10z"/>
<path d="M1442 2025 c-16 -18 -1 -20 17 -2 11 10 14 10 18 0 3 -7 11 -13 20
-13 13 0 13 2 -1 15 -18 19 -37 19 -54 0z"/>
<path d="M1412 1965 c10 -10 49 -14 43 -4 -4 5 -16 9 -27 9 -12 0 -19 -2 -16
-5z"/>
<path d="M1440 1866 c0 -2 9 -6 20 -9 11 -3 20 -1 20 4 0 5 -9 9 -20 9 -11 0
-20 -2 -20 -4z"/>
<path d="M1508 1853 c12 -2 30 -2 40 0 9 3 -1 5 -23 4 -22 0 -30 -2 -17 -4z"/>
<path d="M2555 1730 c-3 -5 -1 -10 4 -10 6 0 11 5 11 10 0 6 -2 10 -4 10 -3 0
-8 -4 -11 -10z"/>
<path d="M2066 1461 c-71 -25 -74 -46 -6 -37 30 4 61 11 71 17 10 5 26 9 36 9
11 0 27 6 38 13 16 12 12 14 -36 15 -30 0 -76 -7 -103 -17z"/>
<path d="M2760 1470 c0 -13 11 -13 30 0 12 8 11 10 -7 10 -13 0 -23 -4 -23
-10z"/>
<path d="M2656 1075 c4 -8 8 -15 10 -15 2 0 4 7 4 15 0 8 -4 15 -10 15 -5 0
-7 -7 -4 -15z"/>
<path d="M1495 970 c3 -5 8 -10 11 -10 2 0 4 5 4 10 0 6 -5 10 -11 10 -5 0 -7
-4 -4 -10z"/>
<path d="M1528 953 c7 -3 16 -2 19 1 4 3 -2 6 -13 5 -11 0 -14 -3 -6 -6z"/>
<path d="M2746 925 c4 -8 10 -12 15 -9 14 8 10 24 -6 24 -9 0 -12 -6 -9 -15z"/>
<path d="M2607 789 c7 -7 15 -10 18 -7 3 3 -2 9 -12 12 -14 6 -15 5 -6 -5z"/>
<path d="M1630 780 c0 -5 11 -10 24 -10 15 0 33 -11 45 -27 12 -14 24 -23 28
-20 3 4 1 13 -6 20 -9 11 -7 17 6 28 11 9 14 10 9 2 -4 -8 -1 -13 8 -13 9 0
16 7 16 15 0 17 -45 21 -55 5 -4 -6 -12 -7 -18 -3 -20 12 -57 14 -57 3z"/>
<path d="M1933 773 c-22 -8 -14 -23 12 -21 14 1 25 8 25 15 0 13 -15 16 -37 6z"/>
<path d="M5695 5003 c-33 -2 -64 -9 -70 -15 -7 -7 6 -9 45 -4 30 3 65 6 78 6
12 0 22 5 22 10 0 6 -3 9 -7 8 -5 -1 -35 -3 -68 -5z"/>
<path d="M5670 4766 c0 -2 7 -6 15 -10 8 -3 15 -1 15 4 0 6 -7 10 -15 10 -8 0
-15 -2 -15 -4z"/>
<path d="M5720 4761 c0 -4 11 -6 25 -3 14 2 25 6 25 8 0 2 -11 4 -25 4 -14 0
-25 -4 -25 -9z"/>
<path d="M8 4633 c7 -3 16 -2 19 1 4 3 -2 6 -13 5 -11 0 -14 -3 -6 -6z"/>
<path d="M5448 3953 c6 -2 18 -2 25 0 6 3 1 5 -13 5 -14 0 -19 -2 -12 -5z"/>
<path d="M5524 3948 c-3 -5 43 -7 103 -7 119 2 113 7 -15 11 -46 2 -86 0 -88
-4z"/>
<path d="M5695 2604 c-16 -2 -113 -8 -215 -14 -102 -5 -196 -11 -210 -14 -14
-2 -52 -7 -85 -11 -80 -9 -106 -15 -100 -26 3 -4 11 -6 18 -4 7 2 36 6 66 10
29 3 56 7 60 9 13 8 145 19 394 32 76 4 140 11 143 15 5 9 -9 9 -71 3z"/>
<path d="M4690 2141 c0 -5 5 -13 10 -16 6 -3 10 -2 10 4 0 5 -4 13 -10 16 -5
3 -10 2 -10 -4z"/>
<path d="M5739 2146 c-5 -5 -77 -17 -101 -17 -9 0 -19 -7 -22 -15 -3 -8 -1
-14 4 -14 6 0 10 4 10 8 0 5 20 7 45 5 25 -3 45 0 45 5 0 5 11 7 25 4 18 -3
25 0 25 12 0 14 -20 22 -31 12z"/>
<path d="M290 1650 c0 -5 -8 -11 -17 -13 -15 -4 -15 -5 2 -7 11 -1 34 -3 50
-5 130 -14 159 -15 142 -5 -10 6 -32 12 -50 12 -18 0 -37 4 -43 9 -15 12 -84
20 -84 9z"/>
<path d="M5040 1129 c0 -5 5 -7 10 -4 6 3 10 8 10 11 0 2 -4 4 -10 4 -5 0 -10
-5 -10 -11z"/>
<path d="M4748 1043 c6 -2 18 -2 25 0 6 3 1 5 -13 5 -14 0 -19 -2 -12 -5z"/>
<path d="M5370 1000 c0 -5 5 -10 11 -10 5 0 7 5 4 10 -3 6 -8 10 -11 10 -2 0
-4 -4 -4 -10z"/>
<path d="M5420 991 c0 -6 6 -11 14 -11 8 0 23 -3 33 -6 12 -5 15 -4 8 3 -15
16 -55 26 -55 14z"/>
<path d="M4240 809 c0 -5 5 -7 10 -4 6 3 10 1 10 -4 0 -6 4 -11 10 -11 5 0 7
7 4 15 -7 17 -34 21 -34 4z"/>
<path d="M4190 790 c-12 -7 -12 -12 -2 -22 9 -9 12 -9 12 0 0 7 5 11 11 10 6
-2 14 3 16 10 5 14 -16 16 -37 2z"/>
<path d="M5330 707 c0 -17 48 -32 125 -40 24 -2 42 -27 26 -36 -7 -5 -5 -12 7
-21 46 -39 128 -106 140 -115 15 -11 62 -52 111 -98 l31 -29 0 36 c0 25 -6 40
-20 48 -11 7 -20 17 -20 22 0 4 9 6 20 3 18 -5 20 0 20 44 0 32 -4 49 -12 50
-7 0 -20 2 -28 4 -8 2 -24 5 -35 8 -11 2 -33 9 -48 15 -16 7 -35 12 -43 12 -7
0 -19 9 -26 20 -7 11 -18 20 -25 20 -7 0 -13 4 -13 9 0 14 -56 34 -124 45 -21
4 -50 9 -62 12 -17 4 -24 2 -24 -9z m250 -127 c22 -11 40 -25 40 -30 0 -13 -1
-13 -37 5 -30 15 -62 45 -49 45 4 0 25 -9 46 -20z"/>
<path d="M5650 649 c0 -5 -4 -7 -10 -4 -5 3 -10 2 -10 -3 0 -14 38 -22 43 -8
3 7 10 5 23 -6 13 -11 24 -14 34 -8 16 10 15 12 -23 28 -35 15 -57 15 -57 1z"/>
<path d="M495 601 c-48 -10 -31 -24 35 -28 56 -4 77 5 50 22 -5 3 -10 0 -10
-7 0 -10 -2 -10 -9 1 -7 11 -9 11 -14 0 -4 -10 -6 -9 -6 4 -1 9 -4 16 -8 16
-5 -1 -21 -4 -38 -8z"/>
<path d="M605 589 c-4 -6 -5 -12 -3 -14 7 -7 108 -9 115 -2 3 4 -13 7 -36 7
-26 0 -40 4 -36 10 3 6 -3 10 -14 10 -11 0 -23 -5 -26 -11z"/>
<path d="M1086 526 c20 -14 133 -48 200 -60 63 -11 190 -15 204 -6 12 7 8 10
-15 12 -16 1 -39 1 -50 1 -23 -2 -121 13 -180 26 -43 10 -128 30 -160 38 -19
5 -19 4 1 -11z"/>
<path d="M2391 451 c-9 -6 -10 -11 -2 -15 6 -4 16 -4 21 -1 6 3 10 1 10 -4 0
-6 3 -10 8 -9 4 1 22 -2 40 -6 22 -5 38 -4 45 3 12 12 13 11 -51 17 -18 1 -38
7 -45 13 -7 5 -19 6 -26 2z"/>
<path d="M5110 241 c0 -5 29 -12 65 -16 38 -4 63 -11 59 -16 -3 -5 -15 -7 -26
-3 -27 8 -148 -5 -148 -17 0 -5 8 -9 17 -9 38 0 -14 -30 -72 -42 -33 -7 -63
-17 -67 -23 -6 -7 -11 -6 -16 2 -4 6 -21 14 -37 18 -17 4 -38 9 -47 12 -10 2
-18 0 -18 -6 0 -6 15 -11 34 -11 39 0 52 -12 32 -29 -9 -8 -15 -8 -18 -2 -2 8
-16 7 -42 0 -28 -8 -50 -8 -75 0 -20 5 -61 12 -91 15 -30 2 -72 7 -92 10 -23
4 -38 2 -38 -4 0 -5 6 -10 13 -10 44 0 181 -23 209 -35 28 -12 30 -14 10 -15
-13 0 -32 -5 -43 -11 -18 -9 -53 -15 -114 -18 -17 -1 -15 -4 9 -16 31 -16 175
-21 192 -7 21 19 133 54 171 54 12 0 24 7 27 15 4 8 13 13 21 9 8 -3 33 1 55
9 22 8 42 15 45 15 8 1 27 7 85 28 68 24 128 22 149 -5 9 -11 22 -18 29 -15 7
2 21 -6 32 -18 10 -12 20 -21 22 -20 12 5 37 -14 31 -24 -4 -6 1 -5 10 3 9 7
17 9 17 4 0 -5 18 -18 40 -29 22 -10 40 -22 40 -26 0 -5 39 -8 88 -8 78 1 85
2 68 15 -15 11 -16 15 -5 19 40 13 40 15 -3 10 -39 -4 -50 -2 -65 15 -10 12
-23 21 -30 21 -20 0 -83 33 -78 41 3 4 -9 12 -26 18 -54 19 -23 30 42 15 34
-8 64 -12 67 -10 2 3 -9 8 -24 11 -16 4 -42 11 -57 17 -16 6 -42 11 -60 10
-17 0 -36 2 -41 6 -18 11 -38 15 -93 17 -28 2 -56 6 -62 9 -8 5 -162 35 -183
36 -5 0 -8 -4 -8 -9z m560 -227 c0 -2 -9 0 -20 6 -11 6 -20 13 -20 16 0 2 9 0
20 -6 11 -6 20 -13 20 -16z"/>
<path d="M4823 213 c15 -2 37 -2 50 0 12 2 0 4 -28 4 -27 0 -38 -2 -22 -4z"/>
<path d="M4918 203 c6 -2 18 -2 25 0 6 3 1 5 -13 5 -14 0 -19 -2 -12 -5z"/>
<path d="M4965 200 c3 -5 10 -10 16 -10 5 0 9 5 9 10 0 6 -7 10 -16 10 -8 0
-12 -4 -9 -10z"/>
<path d="M4470 189 c0 -9 63 -23 81 -17 7 2 -9 9 -35 15 -25 5 -46 7 -46 2z"/>
<path d="M5008 193 c6 -2 18 -2 25 0 6 3 1 5 -13 5 -14 0 -19 -2 -12 -5z"/>
<path d="M4581 166 c2 -2 29 -6 59 -9 36 -4 48 -3 35 3 -19 8 -103 14 -94 6z"/>
<path d="M4738 143 c12 -2 32 -2 45 0 12 2 2 4 -23 4 -25 0 -35 -2 -22 -4z"/>
<path d="M5665 126 c11 -8 24 -12 28 -9 11 7 -12 23 -32 23 -11 0 -9 -4 4 -14z"/>
<path d="M4458 123 c7 -3 16 -2 19 1 4 3 -2 6 -13 5 -11 0 -14 -3 -6 -6z"/>
<path d="M5730 101 c0 -5 7 -12 16 -15 22 -9 24 -8 18 9 -7 16 -34 21 -34 6z"/>
<path d="M4310 81 c8 -4 58 -18 110 -29 145 -32 160 -34 160 -24 0 11 -33 22
-70 22 -14 0 -43 6 -65 14 -48 16 -157 30 -135 17z"/>
<path d="M5680 60 c20 -13 33 -13 25 0 -3 6 -14 10 -23 10 -15 0 -15 -2 -2
-10z"/>
<path d="M4030 10 c20 -13 33 -13 25 0 -3 5 -14 10 -23 10 -15 0 -15 -2 -2
-10z"/>
</g>
</svg>
